<svg xmlns="http://www.w3.org/2000/svg" xmlns:xlink="http://www.w3.org/1999/xlink" width="31" height="30" version="1.1" viewBox="0 0 31 30"><title>circle</title><desc>Created with Sketch.</desc><g id="Page-1" fill="none" fill-rule="evenodd" stroke="none" stroke-width="1"><g id="Desktop" fill="#576069" transform="translate(-917.000000, -227.000000)"><g id="circle" transform="translate(917.894531, 227.000000)"><polygon id="Fill-1" points="5.045 3.089 6.023 3.089 6.023 0 5.045 0"/><polygon id="Fill-2" points=".001 6.024 3.088 6.024 3.088 5.046 .001 5.046"/><polygon id="Fill-3" points="5.045 29.988 6.023 29.988 6.023 26.9 5.045 26.9"/><polygon id="Fill-4" points="0 24.937 3.088 24.937 3.088 23.959 0 23.959"/><polygon id="Fill-5" points="26.663 24.93 29.75 24.93 29.75 23.952 26.663 23.952"/><polygon id="Fill-6" points="23.57 29.981 24.548 29.981 24.548 26.893 23.57 26.893"/><polygon id="Fill-7" points="23.662 3.089 24.64 3.089 24.64 0 23.662 0"/><polygon id="Fill-8" points="26.662 6.024 29.751 6.024 29.751 5.046 26.662 5.046"/><path id="Fill-9" d="M14.8424348,5.19326087 C9.43134783,5.19326087 5.04482609,9.57978261 5.04482609,14.9908696 C5.04482609,20.4026087 9.43134783,24.7891304 14.8424348,24.7891304 C20.2535217,24.7891304 24.6400435,20.4026087 24.6400435,14.9908696 C24.6400435,9.57978261 20.2535217,5.19326087 14.8424348,5.19326087 M14.8424348,7.14978261 C19.1663478,7.14978261 22.6835217,10.6676087 22.6835217,14.9908696 C22.6835217,19.3147826 19.1663478,22.8326087 14.8424348,22.8326087 C10.5185217,22.8326087 7.00134783,19.3147826 7.00134783,14.9908696 C7.00134783,10.6676087 10.5185217,7.14978261 14.8424348,7.14978261"/></g></g></g></svg>