<svg xmlns="http://www.w3.org/2000/svg" width="50" height="50"><g><title>background</title><rect id="canvas_background" width="52" height="52" x="-1" y="-1" fill="none"/></g><g><title>Layer 1</title><path id="svg_1" stroke="#576069" d="m43.321368,43.460127l0,-26.647451q0,-0.318401 -0.232677,-0.551074t-0.55107,-0.232677l-26.647455,0q-0.318397,0 -0.55107,0.232677t-0.232677,0.551074l0,26.647451q0,0.318397 0.232677,0.55107t0.55107,0.232677l26.647455,0q0.318397,0 0.55107,-0.232677t0.232677,-0.55107zm3.134996,-26.647451l0,26.647451q0,1.616479 -1.151132,2.767611t-2.767611,1.151132l-26.647455,0q-1.616479,0 -2.767611,-1.151132t-1.151132,-2.767611l0,-26.647451q0,-1.616482 1.151132,-2.767614t2.767611,-1.151132l26.647455,0q1.616479,0 2.767611,1.151132t1.151132,2.767614zm-9.404983,-9.404983l0,3.918743l-3.134996,0l0,-3.918743q0,-0.318401 -0.232677,-0.551074t-0.55107,-0.232677l-26.647451,0q-0.318401,0 -0.551074,0.232677t-0.232677,0.551074l0,26.647451q0,0.318397 0.232677,0.551074t0.551074,0.232673l3.918743,0l0,3.134996l-3.918743,0q-1.616482,0 -2.767614,-1.151132t-1.151132,-2.767611l0,-26.647451q0,-1.616482 1.151132,-2.767614t2.767614,-1.151128l26.647451,0q1.616479,0 2.767611,1.151128t1.151132,2.767614z"/></g></svg>