<svg xmlns="http://www.w3.org/2000/svg" xmlns:xlink="http://www.w3.org/1999/xlink" width="30" height="30" version="1.1" viewBox="0 0 30 30"><title>rect</title><desc>Created with Sketch.</desc><defs><polygon id="path-1" points="0 30 30 30 30 0 0 0"/></defs><g id="Page-1" fill="none" fill-rule="evenodd" stroke="none" stroke-width="1"><g id="Desktop" transform="translate(-862.000000, -227.000000)"><g id="rect" transform="translate(862.009766, 227.000000)"><polygon id="Fill-1" fill="#576069" points="23.849 3.157 24.849 3.157 24.849 0 23.849 0"/><polygon id="Fill-2" fill="#576069" points="5.151 3.157 6.151 3.157 6.151 0 5.151 0"/><polygon id="Fill-3" fill="#576069" points="5.151 30 6.151 30 6.151 26.843 5.151 26.843"/><polygon id="Fill-4" fill="#576069" points="23.849 30 24.849 30 24.849 26.842 23.849 26.842"/><polygon id="Fill-5" fill="#576069" points="0 6.15 3.157 6.15 3.157 5.15 0 5.15"/><polygon id="Fill-6" fill="#576069" points="0 24.849 3.157 24.849 3.157 23.849 0 23.849"/><g id="Group-12"><path id="Fill-7" fill="#576069" d="M6.48406667,6.4834 L6.48406667,23.5154 L23.5167333,23.5154 L23.5160667,6.4834 L6.48406667,6.4834 Z M5.65073333,25.1820667 C5.19006667,25.1820667 4.8174,24.8094 4.8174,24.3487333 L4.8174,5.65006667 C4.8174,5.19006667 5.19073333,4.81673333 5.65073333,4.81673333 L24.3494,4.81673333 C24.8094,4.81673333 25.1827333,5.19006667 25.1827333,5.65006667 L25.1834,24.3487333 C25.1834,24.5700667 25.0954,24.7820667 24.9394,24.9380667 C24.7827333,25.0940667 24.5707333,25.1820667 24.3500667,25.1820667 L5.65073333,25.1820667 Z"/><mask id="mask-2" fill="#fff"><use xlink:href="#path-1"/></mask><polygon id="Fill-9" fill="#000" points="26.843 24.849 29.999 24.849 29.999 23.849 26.843 23.849" mask="url(#mask-2)"/><polygon id="Fill-11" fill="#000" points="26.843 6.151 30 6.151 30 5.151 26.843 5.151" mask="url(#mask-2)"/></g></g></g></g></svg>
